<?xml version="1.0" encoding="utf-8"?>
<!-- Generator: Adobe Illustrator 22.0.1, SVG Export Plug-In . SVG Version: 6.00 Build 0)  -->
<svg version="1.1" id="Ebene_1" xmlns="http://www.w3.org/2000/svg" xmlns:xlink="http://www.w3.org/1999/xlink" x="0px" y="0px"
	 viewBox="0 0 566.9 566.9" style="enable-background:new 0 0 566.9 566.9;" xml:space="preserve">
<style type="text/css">
	.st0{fill:#FFFFFF;}
</style>
<path class="st0" d="M303,264.2c2.3,0,4.3-2.3,6.8-2.5c0.6-3,5.5-5.2,7.4-7.5c0.9-1.1-0.1-1.8,0.5-2.9c1.1-0.9,3.8-3.6,4.3-5.2
	c0.6-2,1.7-1.1,1.7-3.3c0.5-0.3,0.9-0.5,1.4-0.8c0.4-0.8,0.1-1.9,0.6-2.8c1.1,0.4,0.5,0.9,1.6-0.2c1.3-1.2,2.2-1.5,4-1.2
	c0-2,2.3-1.5,3.4-0.6c1.1-1.6,3.1-2.1,4.8-2.7c2.2-0.8,2.7-1.9,4.2-3.5c2,0.3,1.2,0.4,2.7-1.2c0.8-0.9,2.6,0.3,2.6-1
	c1.4-0.7,2.1,0.4,3.4-0.7c1.5-1.2,2.7-2.8,3.7-4.5c1-1.7,1.3-2.9,0.4-4.6c-1.1-2,1.1-6,1.2-8.2c-2.5,0-4.8-5.9-6.2-7.6
	c-0.9-1.5-3.5-2-5.1-2c-2.4-3.2-3.7-1.7-7-3.1c-0.4-0.5-0.8-0.9-1.1-1.4c-1.4-0.5-2.8,0.5-4.2-0.3c-0.8-2.5-4.2,0.4-5.9-0.6
	c-3.5-0.4-5.8-9.6-8.4-11.8c-2.5-2.2-3.7-7.5-8.4-6.8c-1.7-0.7-2.7-3.1-4.4-3.4c-0.8-0.2-2.3-0.2-2.2-1.4c0-0.7-1.8-0.3-2.6-0.9
	c-1.6-1.2-4.2-0.9-5.3-2.1c-1.1-1.1-2.6-0.8-4-1.4c-1.3-0.5-2.1-1.7-3.3-1.9c-2-0.4-4-0.4-5.8-1.5c-2.3-1.4-4.8-1.1-7.4-1.3
	c-2.8-0.3-4.4-0.6-7,0.3c-2.5,0.9-5.3,1.2-7.9,1.6c-1.5,0.2-1.4-1-3.1,0.6c-2,1.8-5.4,0.3-7.8,1.2c-5,1.9-11.2,1.1-15.5,4.8
	c-0.5,0.5-1.1,0.8-1.7,0.8c-2,0.2-1,0.4-2.3,1.8c-0.8,0.9-1.7,1.2-2.8,0.8c-0.9,0.3-1.2,1.7-2,2.3c-0.9,0.3-1.7,0.6-2.5,1.1
	c0,2.5-0.3,1.9-1.3,3.6c-1,1.8-2.6,3.3-3.6,5.4c-0.9,1.8-1.7,3.9-3.1,5.4c-0.9,0.9-0.5,2.3-1.3,4c-1.1,2.3-0.2,5.2-0.8,7.7
	c-0.4,1.7-0.6,3.5-0.5,5.3c0,0.9-0.9,2.9-0.7,3.5c0.7,2.6,1.1,3.5,0.8,6.2c-0.2,1.6,1.7,3.1,1.7,4.8c-3.2-1-13.2-3.2-13.2-6.2
	c-1.1,0.2-3.1-0.9-3.1-2.3c-1.8-0.4-3.4-0.3-4.9-2.3c-0.4-0.6-0.3-2.6-0.8-2.5c-1.4-0.4-2.8-3.1-2-4.5c0.6-0.7,1.2-1.2,2-1.7
	c-0.4-0.3,0.6-2.5,0.8-2.8c1.3-1.7,3.2-2.1,4.8-3.5c3.1-2.6,7.8-2.1,11.2-1.6c0-0.5,5.9-6.3,1.5-7.9c-2-0.7-11.9,0.7-11.3,2.5
	c-2.2-0.2-2.8,0.7-4.5,1.6c-0.8,0.4-3.7,1.7-4.2,2.7c-1.7,3.3-3.1,6.5-5.3,10c0.7,1.3,0.3,3.5,0.1,4.9c-0.2,1.9,1,3.4,2.1,4.9
	c1.6,2,4,2.8,5.6,4.6c0.7,0.8,1.1,1.7,1.1,2.8c1.1,0.2,2.2,0.5,3.2,0.9c1.9,0.7,4.1,1.4,5.6,2.8c1.2,1.1,1.6,0,3,0.3
	c-1.5,1.5,3.5,1.3,3.7,1.4c1.9,1.1,0.3,2.1,2.8,1.9c1.8-0.2,2.1,0.2,3.3,1.5c1.4,1.4,2.9,1.2,4.3,3.1c1.3,1.7,1.2,3.2,2,4.8
	c0.9,2,3.8,2.6,5,4.8c1,1.8,1,3.8,2.9,3.6c0,2.2,1,2.4,2.3,4.2c0.5,0.4,1.1,0.8,1.8,0.9c1.5,0.6,0.7,2,1.3,3.1
	c2.2,2.8,5.4,2.4,7.2,4.8c2,2.8,6.8,2.4,9.1,4.7c2,0.7,3.2,0.8,5.3,0.8c0.5,0.7,3.5,2.6,4.6,2.2c0.9-0.3,2.4,0.6,3.7,0.5
	c1.8-0.1,5.8,0.4,6.9,1.5c1,0.2,0.5-0.3,1.7,0.3c2,1,3.1-1.3,5.1-0.8c3.2,0.7,6.4-1.1,9.2-2.4c0.9-0.9,1.7-1,2.5-0.3
	c1.4,0.9,1.4-1.2,2.9-0.7c0.6-1.7,2.8-1.2,4.4-1.3C300.7,265.9,301,265.1,303,264.2C303.5,264.2,302.6,264.3,303,264.2L303,264.2z
	 M326,229.6c1.4-1,0.7-5.1,1.9-7.1c1.3-2.2,0.5-5.2,0.6-7.8c0.3-5.1-1.1-10.1-1.1-14.9c1.9,0.3,8.8,2.2,9.3,3.7c1.7,0.9,3.7,1,5.3,2
	c1.2,0.7,0.9,1.6,2.4,2.1c2.6,0.9,2.5,3.4,4.5,3.9c2.2,0.5,1.8,6.3,1.5,8.3c-0.7-0.2-0.5,0.1-0.8-0.6c-1.4,1.8,0,2.5-2.2,3.6
	c-1.2,0.6-2.1,1.6-3.2,2.3c-1.3,0.8-2.8,0-4.2,0c-0.8,2.5-1.1,1.9-2.8,3.4c-1.1,0.9-1.1,2.4-2.7,2.2c-0.9-0.1-2-0.6-2.6,0.4
	c-0.5,0.9-4.8,1.3-6.5,1.3C325.8,231.5,326,230.5,326,229.6C326.3,229.4,326.1,231,326,229.6L326,229.6z M226.2,229.6
	c-5.2,0.8-4.9-4.5-7.1-7c-1.2-1.3,0.2-1.9-1.3-3.4c-0.1-0.8,0-1.7,0-2.5c0-1.6-0.5-4.4,0-5.9c1.8-0.9,0.2-6,1.4-7.9
	c0.4-0.6-0.6-2-0.3-2.8c0.8-2.1,1.5-4.3,2.5-6.3c0.6-1.4,0.8-2.2,1-3.7c0.4-2.5,3-0.4,3-3.2c1.1-1.6,1.1,1.4,1.7-1.7
	c0.6-1.1,1.9-2.2,2.8-1.7c0.9-2.8,4.8-2.7,5.3-5.6c1.4-0.1,2.3-1.8,3.7-1.4c2.6,0.7,2.7-2.2,4.8-2.8c2-0.6,4.2,0.8,6.2,0
	c2.2-0.9,4.8-1.1,7.2-1.7c1.4-0.3,9.4-3.4,9.7-1.4c1.9-0.4,3.5-1.7,5.5-1.8c1.2,0,2.3,0.4,3.2,1.2c0.5-0.7,1.4-1.1,2.3-1.1
	c0,0.7,10.3,3.9,11.7,3.8c14.8,0.4,22.6,11.6,24,12.8c1.4,1.1,2.9,2.3,3.4,4.1c0.5,2.2,2.9,3.4,3.1,5.3c0.1,1.1,0.7,1.8,2,2.1
	c0.5,0.9-0.4,1.9,0,2.8c0.8,1.9,1.8,2.3,2,4.6c0.5,8.6-0.6,17.2-2.8,25.2c-0.8,2.8,0.3,4.7-3,4.6c-1.8,0-5.9-0.9-6.9,0.6
	c-1.9,0-3.9,1.8-5.7,1.1c-2.4-0.9-3,0.9-5,0.4c-5.1-1.3-10.9,0.7-16-0.1c-4.9-0.7-9.2,0.4-14.1,0c-1.5-0.1-1.1-1.2-3.1-0.9
	c-2.4,0.4-3.4-0.3-5.6-0.8c-1.5-0.3-3.2,0.8-4.5,0c-0.6-0.4-1.2-0.4-1.8,0.2c-2.3,1.1-1-1.2-3.1-0.2c-3.1,1.5-3.4-0.9-6.2-0.6
	c-3.5,0.5-4.3-1.6-7.5-2c-2.1-0.2-3.8-2-6-1.4C230.4,231.3,228.5,229.2,226.2,229.6C225.7,229.6,226.5,229.5,226.2,229.6
	L226.2,229.6z M299,261.1c-2.7,1.3-5.6,0.4-8.2,1.1c-0.6,0.4-1.1,0.9-1.7,1.4c-1.2-0.5-2.2-0.3-2.8,0.6c-1.7-0.3-4.8,0.5-6.4,1.5
	c-2,1.2-3.6,0.6-5.7,0.1c-2.5-0.6-5.3-0.2-7.5-0.7c-3-3-9.5-1.5-12.9-4.2c-2.7-2.2-7.8-1.2-8.2-5.7c-3.9,1.1-7.5-5.4-9.1-8
	c-0.9-1.4-1.9-1.8-3.3-2.6c-0.9-0.5-1.2-1.2-1.1-2.2c-0.5-2.6-1.2-0.6-2.2-2.5c-1.2-2.1-4.2-3.6-0.3-4.1c1.2,1.8,2.7-0.6,4.5,1.1
	c2.7-0.5,6.4,0.4,8.7,2.8c1.6,1.7,2.1,0.7,4,0.2c1.8-0.5,3.4,2.1,5,0.4c0.8-0.9,3,0.6,4.3,0.1c2.5-0.9,5.3-0.1,7.9,0.3
	c2.5,0.3,4.4,1.2,6.9,0.8c1.9-0.3,3.8-1.2,5.6-0.2c2.3,1.3,7.3,1.3,9.7,0.5c2.4-0.8,5.3-0.2,7.5-0.1c2,0.1,5.7,1.1,7.5,0.7
	c2.1-0.5,4-1.4,6-1.9c2.4-0.7,2.4,0.4,4.5,0.9c0.1-0.3,0.1-0.6,0-0.8c2.5,0,2.4,1.5,3.7-1.1c1.3,0.1,2.7,0.4,3.9,0.8
	c-0.7,3.8-5,8.1-7.1,11.3c-2,3.1-3.5,3-6.4,4.4c-0.7,0.4-2,1.7-2.8,2.3C302.2,259.8,300.5,259.6,299,261.1
	C298.5,261.3,299.6,260.5,299,261.1L299,261.1z M151.7,295.1c2.5,0.4,4.5,0,4.4,3.2c-0.2,3.3,1,5.7,0.1,8.9c-0.9,3.4,2.1,4.6,4.5,4
	c4.4-1.1,2.3-8.1,1.4-11.6c-0.8-3.2,0.2-6.7-1.2-9.6c-0.4-0.8-1-1.8-0.5-2.7c0.6-1-1.6-3.1-1.9-4c0.2-2.4-0.4-5.5-2.2-7.5
	c-0.9-1.1-2.1-2-2.9-3.2c-0.4-1.9-0.6-2.9-2.3-4.2c-1-0.8-1.4-1.6-1.7-2.9c-1.4,0.2-2.8,1-4.2,1.1c-0.1,0.4-0.2,1.1-0.8,1.2
	c-1.8,0.3-1.7,1.3-2.3,3c-1.1,3.3-6.6,6.7-9.6,8c-0.6,0.3-0.1,0.9-0.6,1.2c-1.9,0.3-1.8,0.1-3,1.1c-1.8,1.5-4,3.2-5.4,5.1
	c-2.3,0-3.2,4.2-4.9,5.2c-1.6,0.9-4.6,5-1.5,6c-0.3,0.3-0.5,0.7-0.6,1.1c0.4,0.4,5.3-0.2,6-0.7c1.7-1.1,1.8-3.7,3.3-5.2
	c1.4,3.2,3.5,2.3,6.6,1.6c2.8-0.6,4.8-1.5,7.7-1.1C142.1,293.6,151.7,291.2,151.7,295.1C152.4,295.2,151.7,294.8,151.7,295.1
	L151.7,295.1z M148,287.2c-2.1-0.6-4.8-1.8-7.3-1.1c-2.8,1-4.2,2.5-7.3,2.7c-1.5,0.1-2.7,0.4-3.6,0.4c0.8-1.9,2.6-3.2,4.3-4.3
	c1.9-1.2,4-3.7,6-4.2c1.9-0.5,1.6-2.7,3.7-2.7c1.4-1,1.5-2.2,3.2-2.9c3.4-1.4,3.8,5.2,5,6.8c0,0.1,1,2,1.4,2.5
	C153.3,287.9,150.8,287.1,148,287.2C147.8,287.2,149.6,287.1,148,287.2L148,287.2z M146,266.1C144.9,266.1,146,266.6,146,266.1
	C145.8,266.1,146,266.2,146,266.1z M420.8,297.4c-1.2-1.2-1.7-3.8-1.5-5.5c0.1-1.5,1.4-5.8,0.8-6.9c-0.6-1.1-1.8-4.4-1.6-6.1
	c-3-1-4.5-4.2-7.7-4.4c-2.2-0.2-2.6,1.3-1.8,3.1c0.5,1.2,1.2,0.3,1.7,1c0.8,1.3,0.7,2.9,0.8,4.3c0.3,2.6,2.5,4,2.4,6.6
	c0,2.2-0.5,4.5,0.1,6.6c0.5,1.8,1.7,4.6,0.6,6.4c-0.8,2.5-5.9-0.3-7-1.7c-2.4,0.5-2.9-1.4-5.2-2c-2.7-0.6-5.7-3.5-8.4-4.8
	c-2.7-1.3-5.5-2.6-8.1-4.2c-2.6-1.6-3.6-4.1-7-3.9c-1.4,0.1-2.5-1.1-3.5-1.9c-2.2-1.8,0.2-2.7-2.5-3.6c-2.1-0.7-3.9,0.7-5.3-0.2
	c-0.7,2.5-1.4,3.6-0.7,6.9c1,5.1,2.8,9.8,3.4,15c0.4,4-1.3,9,1,12.3c1.1,1.5,1.6,3.2,3.5,3.2c0.8,0,4.2-1.8,3.7-2.9
	c0.1,0.2,0.1,0.4,0.1,0.7c1.5,0,0.3-5.7-0.3-6.8c-1,1.1-1-2.8-0.9-3.1c0.2-1.1-0.2-1.9-1.3-2.3c0.2-1.9,0.3-3.3-0.1-5.1
	c-0.4-2.1-1.9-7,0.3-7.8c1.5-0.6,2.6,2,4.4,2c2.3,0,3.2,2.3,5.5,2.5c0,2,8.3,4.8,10.3,6.5c1.6,1.3,7,6,8.6,5.6
	c1.1,0.5,9.5,4,10.4,3.1c0.4,0.6,0.9,1.1,1.4,1.7c1.3,0.6,3.2,0,4.2,1.1c2.4-0.5,3.4-2.3,2.6-4.6c-0.6-1.9-2.3-3.5-2.4-5.5
	C421.2,301,421.5,299,420.8,297.4C420.5,297.1,421.3,298.6,420.8,297.4L420.8,297.4z M333.3,308.6c-3,0.7-6.3,2-9.8,2.3
	c-1.8,0.1-2.5-0.9-4.7-0.3c-1.9,0.6-3.3-0.6-5.4-0.3c-2.5,0.4-5.4,0.8-6.4-1.5c-0.9-2.2-1.3-4.2-0.1-6.4c2.1,0.2,4.6,1.4,6.8,0.8
	c1-0.4,2.1-0.9,3.1-1.4c1.2,1.2,1.1,1.3,2.5,1.4c0-1.5,7.9,0.4,9.8,0.6c0.7-0.7,1.4-1.3,2.2-1.9c2.1-1.4,0-1.1,1.2-2.9
	c-0.3-1.7-4.5-3.9-4.1-4.6c0.2,0.1,0.3,0.2,0.5,0.4c-0.1-0.5-0.2-0.7-0.6-1.1c0,1.8-8.3,3.1-9.4,2c-1.2-1.2-3.9,1.2-5.5,0.7
	c-2.7-0.8-4,0-6.8,0.4c-0.1-3.5,0.8-6.8,0.8-10.1c1.4,0,2.6,0.7,3.9,1.2c0.8,0.3,4-0.4,4-0.4c0.4,1.2,2.5,1.3,1.7,0.6
	c2.7,0.4,4.7-0.1,7.3,0c1.1,0.1,4.2-1.1,5-0.7c1.3,0.6,2.2-0.4,2.5-1.7c0.1-0.8,0.4-1.6,0.7-2.4c-0.2-0.4-1.4-1-1.3-1.5
	c0.7-2.5-11.1-0.3-12.8-0.4c-1.6-0.1-14.8-1.1-12.8,3.1c1.1,2.3-2.5,0.7-4,0.3c-2.2-0.5-2-0.3-4.1,1.2c0.1,1.7,0,5,1.8,5.7
	c1.1,0.4,0.7,6.4,1.2,8.1c0.7,2-1.2,3.6-1,5.6c0.3,2.6-0.3,5.3-0.4,7.9c1.5,0,2.5,3.1,4.5,3.7c-0.1-0.1,2.8,0.4,3.1,0.3
	c0.6-0.3,1.1-0.7,1.6-1.2c1-0.6,1.6,0.3,2.7,0c2.7-0.6,3.7,0.6,6,0.3c2.8-0.3,13.8-2.4,15,0.5c2-0.1,2.5-2,4.5-2.3
	c0-1.6,0.8-3.1-0.6-4.1C335.3,310.1,333.9,309.5,333.3,308.6C332.5,308.8,333.8,309.5,333.3,308.6z M210.4,328.9
	c0-0.5,5.5-1.7,6.8-1.7c1.9-0.6,1.5-1.1,3.9-1.4c1.8-1.8,3.1-0.4,5.1-1.7c3.1-1.3,3-4.8,1.7-7c-2.5-0.2-7-0.9-7.9,2.3
	c-1.9,0.3-2.3,0.6-4.5,0.3c-1,1-1.8,2.4-3.4,2.5c-2.2,0.2-6.7,0.2-7.3,1.4c-5.7,0,1.7-17.4,1.8-20.7c0-4.2,4.6-12.5-2.1-12.5
	c-2.8,0-4.2,0.8-5.5,3.1c-0.8,1.4,0.1,1.9,1.6,2.9c-0.2,2.4-0.4,4.9-0.8,7.3c-0.6,3.6-1.5,7.2-2.3,10.8c-0.7,2.9,0.4,7.7-1.3,9.5
	c0.4,1.4-0.1,3.1-0.3,4.5c2,0.4,3.3,2.1,5.1,2.8C203.1,328.7,207.5,328.9,210.4,328.9C210.4,328.7,209.4,328.9,210.4,328.9
	L210.4,328.9z M272,295.4c-2.9-1.4-3.8,0.1-5.6,1.8c-1.5,1.5-2.6,1.5-1.9,3.8c0.8,2.5,1.1,4.7,3.5,5.2c4.1,0.9,3.4-3.5,5.9-5.2
	c-0.2-0.5-0.6-1.2-0.8-1.5C272,298.2,273.3,296.5,272,295.4C272,295.3,272.7,295.9,272,295.4z M264.7,301.9
	C264.3,300.8,264.2,301.9,264.7,301.9C264.5,301.4,264.6,301.9,264.7,301.9z M271.2,339.8c2.8-0.5,1.3-4.8,3.1-4.8
	c-3.3-6.2-2.4-12.1-2.2-18.6c0-1.7-1.3-4.6-2.8-5.4c-1.1-0.6-2.5-0.8-3.7-0.7c-0.1,0.4-1.6,2.4-0.9,2.8c0.2,0.1,0.7,4.4,0.9,5.3
	c0.7,2.7-1.3,5.2-0.7,7.8C265.7,330.2,265.3,340.3,271.2,339.8C273.2,339.4,271,339.8,271.2,339.8z M83.9,326.6
	c-2.1-0.1-2.5-0.8-4.9-0.3c-2.4,0.5-4.8,1.3-7.2,1.7c-3.9,0.6-7.7,0.3-11,0.3c1.1-4.4-2.6-5.7-5.7-4.7c-2.3,0.7-2.1,3-3,5.3
	c-2,0.3-3.8-0.8-5.7,0c-1.4,0.6-2-1.1-3.3-1.4c-2.1-0.5-4.5,1.3-6.1,2.2c-0.9,2.3,1.7,6.4,4.5,6.1c3.4-0.4,7.8-1.9,11.2-0.5
	c1.3,0.8,1.3,2.6,0.6,3.6c-1.1,1.4-0.1,3.9-0.3,5.8c-0.6,3.6-0.1,8.9-2.8,11.2c-1.1,0.9-1.2,3.2-0.2,4.2c2.2,0.4,1.4,1.4,2.5,3
	c0.8,1.1,1.2,0.5,1.2-0.7c2.9-0.2,2.2-0.6,3.4-2.3c1.2,0,0.3-5.9,1.1-7c1.5-1.9-0.8-3-0.3-4.8c0.4-1.3,1.7-2.2,0.6-3.4
	c-0.4-2.1,0.1-6.8,0.7-8.8c0.3-1.2,4.8-0.8,5.8-1c1.4-0.3,2.1-1,3.6-0.6c0.3,0.1,4,0.1,4,0.1c1.1-0.4,6.6-0.6,7.9,0.3
	C84.8,334.7,84.5,329.2,83.9,326.6C82.6,326.6,84.1,327.5,83.9,326.6L83.9,326.6z M528.5,374.4c-2.2,0-3.8-5-6.3-6.1
	c-2-0.8-1.8-3.2-3.8-3.6c-1.7-0.3-2.2-2.3-3.7-3.1c-2.7-1.5-7.3-5-5.8-8c1.6-3.1,5.2-6.6,4-10.3c-1.3-4.3-3.4-5.8-7.5-5.4
	c-3.4,0.4-4.6-0.4-8-0.4c-4.2,0-7.4-2.9-11.7-1.8c-1.6,0.4-2.5-1.4-3.6-0.8c-0.8,0.6-1.7,0.6-2.8,0c0-1.9-1.4-1.1-3-1.3
	c-3.8-0.4-3.6,1.5-5.2,4.8c-1.6,3.3,2.3,3.8,3.4,6.7c2.3,6.2,1.8,12.5,4,18.6c1,2.8,0.7,9.4,2.8,11.1c1.5,1.3-0.4,3.4,1.2,4.8
	c0.7,0.6,1.6,1.1,2.4,1.5c2.2,1,1.6,1,3.1-0.5c1.6-1.7,0.3-2.6,0.6-5.1c-1.3-0.7-1.6-1.7-0.8-3.1c-0.4-0.1-0.7-0.2-1.1-0.3
	c-1.7-1.7-2.5-8.7-2.5-11c2.4,0.2,3.9,2.3,6.3,2.3c2.3,0,4.7-0.6,6.8-1.5c1.3-0.6,4.9-1.5,5.7,0.3c0.7,1.5,1.5,0.5,3,0.5
	c1.8,0,2,1.8,3.8,2c0.4,2.3,3.5,3.2,5.2,5.1c2.2,2.4,4.1,5.3,6.7,7.4c1.8,1.4,3.6,5.2,6.9,3C533.2,379.7,529.5,376.1,528.5,374.4
	C528.3,374.4,529.3,375.9,528.5,374.4L528.5,374.4z M505.2,349.1c-1.9,2.9-5.5,2.9-7.5,5.8c-2.2,3.1-7.9,3.3-10.7,0.9
	c-1-0.9-2.3-3.4-3.4-0.8c-1.8-0.4-1.6-2.1-1.7-3.5c-0.2-1.5-0.8-3-1.1-4.5c-0.4-2.6,1.2-2.7,0.8-5.2c3.2-0.3,4.7-0.4,7.9,0.3
	c2.4,0.5,5,0.6,7.3,0.9C500.3,343.4,509.2,343,505.2,349.1C504.7,349.8,506.1,347.7,505.2,349.1z M127.8,381.7
	c-0.6-2.9-2.8-4.7-4.5-7.3c-1-1.5-4.2-1.7-4.5-3.5c-0.5-2.4-4.8-2.3-5.6-4.9c-4.3-0.7,1.1-3.3,1.1-5.3c0.5-0.9,2.7-3.9,3.7-3.9
	c1.2-1.4-1.6-1.1,1.1-2.4c1.7-0.8,1.1-1.3,2.2-2.7c0.9-1-0.9-4.9-1.3-5.9c-1.2-2.6-5.5-1-7.1-3.7c-0.4-0.2-1.7,0.8-2.9,0.6
	c-1.6-0.4-3.3,0.3-4.6-0.5c-1.5-0.9-3.6-0.2-4.5-1.2c-1.7-1.8-3.4,0-5.6,0.8c-5.8,1.9,0,6.6-0.6,9.9c-0.1,1.6,0.6,2.2,0.3,3.9
	c0,0-1.1,3.5-1.1,2.3c-0.7,0.4-1.5,2.4-1.7,3.1c-0.8,2,1.7,4.5,2.3,6.2c0.7,1.8-1,4.1-1,5.6c0,1.4-0.5,2.6-1.5,3.7
	c0.2,1.2,1.2,2.1,1.8,3.1c0.9,1.3,1.5,4.1,3.8,1.4c1.1-1.6,0.5-3.3,1.1-5.1c1-2.9,1.6-4.9,2.3-7.9c1.1,0,1.8-0.5,2.9-0.1
	c1.3,0.5,0.9,1.6,2.3,1.6c3.3,0,10,5,11.7,7.5c1.6,2.4,2.1,4.8,4.5,6.4c1,0.6,3.1,4.1,2.9,5.3c-1.1,4.5,4.4,4.8,7.2,3.2
	c2.1-0.8,2.1-3.9,1.7-5.7C133.3,383.4,129.2,383.8,127.8,381.7C127.6,380.9,128.7,383.2,127.8,381.7L127.8,381.7z M110.6,355.9
	c-1.7,1-3.5,1.9-5,3.2c-2.1,1.9-2.3-0.5-4.6-1c0.2-1.4-0.2-2.8-0.1-4.1c0.1-1.5,1.7-2.7,1-4.3c0.5-0.9,2-0.3,3.1-1.4
	c1.7-0.7,4.1,0.3,5.7,0.8c2.1,0.6,4.1-0.1,2.8,2.7C112.6,353.6,110.6,354.6,110.6,355.9C108.8,357,110.6,355.5,110.6,355.9z
	 M458.5,361.8c-0.6-3.4-5.4-4.2-7-6.5c-0.8-1.2-5.8-5.3-7.1-5.3c-0.4-2.2-3.2-2.6-4.5-1.1c-2,2.4,0.1,3.7-0.6,5.9
	c-0.4,1.3-2.1,2.9-2.5,4.5c0.2,0.7-0.5,3.6-0.8,4.5c-1.5,4.1-2,9.3,1,13.1c1.8,2.3,2.6,2.2,5.2,3.2c1.9,0.7,4.3-0.5,5.1,1.4
	c4-1.6,8.4-3.1,10.7-7c1.1-1.8,2.3-4.7,1.9-6.8C459.6,366.1,457.6,363.4,458.5,361.8C458.1,359.6,457.6,363.3,458.5,361.8z
	 M450.1,373.6c-2,0.9-11.1,1-9.3-3.5c0.8-1.9,1.3-2.7,1.4-4.9c0.1-2.1,2.4-3.6,3.1-5.7c0.7,0.9,4.2,0.6,5.6,2.5
	c1.3,1.8,2.6,3.4,2.2,5.4C452.7,369.9,452.1,372,450.1,373.6C448.7,374.2,452.8,371.5,450.1,373.6L450.1,373.6z M418.6,350.8
	c-1.1-0.9,0.3-1.4-1.7-1.8c-1.9-0.3-3.4,2-5.1,2.9c-3.4,1.7-8,3-7.8-1.9c-2.2,1.2-6.5-2.7-6.5,1.7c-1.4,0-1.9,1-2.7-0.1
	c-0.4-0.6-2-1.3-2.9-0.7c-1.6,1-5.7,4.5-2.6,6.5c0.8,0.5,4.2,2.8,4.7,2.7c6.8-1.6,5.2,7,6.9,11.3c0.4,1,1,2.3,0.8,3.4
	c0.2-0.2,1.2,3.2,1.3,3.7c0.4,3,0.7,7.4,2,10.2c1.9,3.9,2.6,3.2,6.5,2.4c-0.1-0.8,0.8-2.4,0.6-3.1c-1.3,0-1.1-1.6-1.1-2.5
	c0-1.9-1.1-5.1-2-7.3c-0.6-1.4,0.1-3.2-0.6-4.5c-1.2-2.4-1.4-3.4-1.4-6.2c-0.5-1.4-0.8-5.1-1.7-5.9c1.2-2.6,5.9-3.1,8.3-3.1
	c2.8,0,5.8-0.2,6.6-3.1c0.1-0.5,0.6-1.9,0.3-2.5C420.5,350.1,419.7,351.8,418.6,350.8C418.3,350.6,419.1,351.2,418.6,350.8
	L418.6,350.8z M317.6,360.9c3.6,0,4.6-4.5,4.5-7.3c-1.2,0-1.5-1.9-1.7-3.1c-1.5,0.4-5.1-1.5-5.1,1.4c-7,2,1.2,8.9,0.6,9.5
	c0.1-0.3,0.2-0.5,0.3-0.8C316.6,361,317.1,361.1,317.6,360.9C320.9,360.9,317.2,361.1,317.6,360.9z M358.9,373.9
	c-1.9,0.7-3.6,0.1-4.5-1.4c-1.3-0.6-3.5-0.8-4.3-1.6c-6-6,4.3-6.2,8.3-8.2c1.7,1.7,8.1,1,9.5-0.9c1.6-2.2-1.2-4.4-2.1-6.4
	c-1.3-2.8-3.8,0.9-5.5,0.9c-1.5-0.1-4.7,0-5.8,1c-1.9,1.7-4.4,0.1-6.9,2.1c-2.3,1.9-6.2,1.4-6.1,4.7c0.1,1.9,0.3,3.8,0.6,5.6
	c0.2,1.3,0.4,2.7,0.5,4c0.9,0,1.7,0.3,2.4,0.9c1.6,1.7,2.7,2.4,5,3c1.9-0.4,1.6,0.8,3.6,0.9c2.1,0.1,4.6,0.4,5.4,2.6
	c0.5,1.3,1.5,0.6,1,2.1c-1.5-0.1-2.3-1.2-3.4,0.6c-0.2-0.2-0.3-0.5-0.3-0.8c-3.5,0-0.6,6.8-1.1,7.3c3.2,3.2,8.4,0.6,11.8-1.7
	c3.8-1.6,2.7-6.6,0.7-9.1C365.6,376.6,362,375.5,358.9,373.9C358.9,373.9,364.2,376.6,358.9,373.9L358.9,373.9z M179.5,385.4
	c-1.2-1.8-3.1-3.2-3.1-5.6c-0.1-2.7,1.2-4.4,0-7.1c-0.8-1.8-3.5-4.2-4.8-5.1c0.1-2.2-1.6-8-0.6-9c-0.6-0.9-4.8-2-5.7-1.6
	c-2.4,1-7.4,4.2-4.4,6.9c-0.3,4.9-8.5,8.6-7,11.8c-2.7,0.9-4.6,4.8-5.8,6.9c-1.2,2.2-4.7,5.2-2.4,7.7c1.7,3.4,5.6,3,6.3-0.5
	c0.6-3.1,3.1-6.3,5-8.7c2.3-3.1,3.9-2.9,7.6-2.9c2.4,0,3.3,0.2,3.7,2.6c0.7,0.6,1.3,1.1,2,1.7c-0.5,1.3-0.1,2.3,1,3
	c1.8,1.8,0.3,2.6,1,4.6c2.2,2.7,2.3,2.9,5.7,2.8C182.2,392.9,179.3,387.7,179.5,385.4C179.2,384.9,179.3,387.4,179.5,385.4
	L179.5,385.4z M165.7,371c-1.4,0.2-3.6,0.7-3.8,0.3c-0.1-0.2,1.9-3.9,2.8-3.8C165.2,367.6,165.7,369.8,165.7,371
	C165.7,370.8,165.7,370.8,165.7,371L165.7,371z M245.6,395.2c0.4-6.1-0.5-9.8-2.3-15.5c0-2-1.8-6.1-1.1-7.9c1.6-1.6,0.2-5.1-0.4-6.6
	c-0.8-2-4.9-1.7-6.2,0.3c-2.3,3.4-1.6,5.5,0,9.2c1.1,2.3,0.7,4.8,1.9,6.8c1.6,2.8,1.5,6.2,1.6,9.5c-1.6-0.3-6.5-3.6-6.5-4.8
	c-2.9,1-7-5.5-9.2-6.8c-2.2-1.2-4-2.2-5.7-4.1c-1.6-1.7-4.1-8-6-7.4c-2,0.6-3.6-1.1-5,0.8c-0.4,0.7-0.9,1.2-1.5,1.7
	c0,1.1,0.6,1.6-0.1,2.6c-1.3,1.7,0.3,3.7,0.7,5.5c0.3,1.4-1.1,2,0,3.1c0.2,0.9,0.1,1.9,0.1,2.9c-0.1,4,0.7,9.1-1.7,12.6
	c-0.4,0.7-1.1,1.3-1.8,1.7c0.5,1.1,1.4,2.7,1.4,3.9c1.8,0.3,3.4,1.1,5,1.8c2.7,1.2,1.4,0.2,3.1-1.2c1.7-1.3,0.5-4.4,2.3-5.2
	c-1.1-2.5-2.5-2.6-1.8-5.8c0.8-4.1,0.1-8.8,0.1-13c1.9,0.5,3.2,1.8,4.5,3.1c1.6,1.6,3.8,2,5.2,3.7c1.6,1.9,3.4,2,4.9,4.3
	c1.3,2,3.9,2,5.4,4.1c2,1.4,3.3,2.9,5.6,4c0.9,0.4,1.4,1,1.7,2c1.1-0.2,2.3-1,3.4,0C245.9,400.4,246.3,396.8,245.6,395.2
	C245.7,393.7,245.6,395.3,245.6,395.2L245.6,395.2z M290.3,391.3c-0.8-1.1-0.9-2.7-2-3.7c-0.7-0.3-1.5-0.6-2.3-0.8
	c-0.2-0.5-0.3-1-0.6-1.4c-1.4,0-2-1.1-3.1-1.1c-1.6,0-3.6,1-4.5-0.8c-1-2.1-5.7-3.1-2.9-6.7c2-2.6,6.4-4.3,8.5-1.2
	c2-0.8,6.6-1.3,6.5-4.4c0-1.2-0.5-3.5,0.3-4.6c-1.3-1.5-3-2.7-4.8-2c-0.9,0.2-1.9,1.5-2.6,2c-2.3,1.6-3.9-1.4-6.1,0.8
	c-2.2,0.7-2.9,0-4.6,2.2c-1.1,1.4-2,3.9-3.8,4.5c0,2.5-1.5,6-0.4,8c1.7,3,1.8,3.9,5.2,4.6c1.9,1.1,11.9,3.8,9.3,7
	c-1.8,2.6-6.9,1-8.1,4.4c-1.3,3.6-0.7,4.4,3.2,4c1.7-0.1,3.4-0.4,5.1-0.3c1.9,0.1,1-0.3,2.6-1.3c0.7-0.5,1.1,0.2,1.1-0.8
	c0.8-0.3,1.7-0.3,2.5-0.3c0.3-0.5,0.6-1.1,0.8-1.7C292.7,394.9,292.6,394.5,290.3,391.3C289.4,390.1,291.2,392.6,290.3,391.3
	L290.3,391.3z M274,401.4c-0.2-0.2-0.3-0.5-0.3-0.8C274.2,400.5,274.3,400.8,274,401.4C273.8,401.1,274,401.1,274,401.4z
	 M326.6,395.8c-0.5-2.4-1.8-3.9-1.4-6.5c-0.5-2.1-0.7-4.3-1.5-6.3c-1.1-3-5.9-5.9-7.1-2.1c-0.8,2.5,0.4,6.5,1.2,7.9
	c0.2,4.7,0.3,12.2,3.9,15.8c0-0.3,0.5-0.7,0,0.3c0.8-0.3,0.9-0.3,1.1,0.6C326.3,403.9,327.3,399,326.6,395.8
	C326.3,394.4,326.8,396.8,326.6,395.8L326.6,395.8z"/>
<path class="st0" d="M274,401.4c0.3-0.7,0.2-0.9-0.3-0.8C273.7,400.9,273.8,401.2,274,401.4C274,401.1,273.8,401.1,274,401.4z"/>
<path class="st0" d="M274.6,403.1c-0.3-0.2-0.3-0.2-0.8-0.3C274,403,274,403,274.6,403.1z"/>
</svg>
